<svg width="200" height="200" viewBox="0 0 200 200" fill="none" xmlns="http://www.w3.org/2000/svg">
<g clip-path="url(#clip0_149_5)">
<path d="M200 0H0V200H200V0Z" fill="#222"/>
<path d="M126 143.8C126 151.8 135.4 154.2 140.2 155.4C155.4 159.4 185.8 167.2 185.8 167.2C192.2 169.4 197.2 174.2 200 180.4V200H0V180.4C2.6 174.2 7.8 169.4 14.2 167.2C14.2 167.2 44.6 159.4 59.8 155.4C64.6 154.2 74 151.8 74 143.8C74 135.8 74 122 74 122H126C126 122 126 135.8 126 143.8Z" fill="#454545"/>
<mask id="mask0_149_5" style="mask-type:luminance" maskUnits="userSpaceOnUse" x="0" y="122" width="200" height="78">
<path d="M126 143.8C126 151.8 135.4 154.2 140.2 155.4C155.4 159.4 185.8 167.2 185.8 167.2C192.2 169.4 197.2 174.2 200 180.4V200H0V180.4C2.6 174.2 7.8 169.4 14.2 167.2C14.2 167.2 44.6 159.4 59.8 155.4C64.6 154.2 74 151.8 74 143.8C74 135.8 74 122 74 122H126C126 122 126 135.8 126 143.8Z" fill="white"/>
</mask>
<g mask="url(#mask0_149_5)">
<path d="M100.4 22C100.6 22 100.6 22 100.8 22C107.4 22 117.2 22.4 123.6 26C130.2 29.8 138.2 37.2 140.6 50.2C145.4 77.6 136.4 121 128 135C120 148.4 108.4 153.4 101 153.8H100.8C100.6 153.8 100.6 153.8 100.4 153.8C100.2 153.8 100.2 153.8 100 153.8H99.8C92.4 153.4 80.8 148.4 72.8 135C64.4 121 55.4 77.6 60.2 50.2C62.6 37.2 70.6 29.8 77.2 26C83.6 22.4 93.4 22 100 22C100.2 22 100.2 22 100.4 22Z" fill="#343434"/>
</g>
<path d="M99.2004 32C137.4 32 140.6 59.6 140.8 62.2C143 86 134.8 118.4 127.2 129.6C119.2 141.4 107.6 145.8 100.2 146.2C99.8004 146.2 99.8004 146.2 99.6004 146.2C99.4004 146.2 99.4004 146.2 99.2004 146.2C91.6004 145.6 80.0004 141.2 72.0004 129.4C64.4004 118.2 56.2004 85.8 58.4004 61.8C58.6004 59.4 61.0004 32 99.2004 32Z" fill="#666666"/>
</g>
<defs>
<clipPath id="clip0_149_5">
<rect width="200" height="200" fill="white"/>
</clipPath>
</defs>
</svg>
