<svg width="750" height="750" viewBox="0 0 750 750" fill="none" xmlns="http://www.w3.org/2000/svg">
<path d="M375.83 0C304.99 0 245.409 49.7538 229.883 116.016C211.597 91.3761 182.554 75.0977 149.756 75.0977C94.8235 75.0977 49.7559 120.165 49.7559 175.098C49.7559 193.191 55.0046 210.005 63.5254 224.707H505.664C518.446 202.679 525.879 177.2 525.879 150C525.879 67.4532 458.377 0 375.83 0Z" fill="#111"/>
<path d="M25 249.707C11.1935 249.708 0.00138 260.9 0 274.707V724.707C0.00138 738.514 11.1935 749.706 25 749.707H525C538.807 749.706 549.999 738.514 550 724.707V274.707C549.999 260.9 538.807 249.708 525 249.707H25ZM100 324.707H150C184.09 323.942 184.09 375.472 150 374.707H100C65.9099 375.472 65.9099 323.942 100 324.707Z" fill="#111"/>
<path d="M675 324.709C642.639 324.709 615.046 345.823 604.639 374.807H575V649.758H604.688C615.135 678.667 642.693 699.709 675 699.709H725C731.63 699.708 737.989 697.074 742.677 692.386C747.365 687.698 749.999 681.339 750 674.709V349.709C749.999 343.079 747.365 336.72 742.677 332.032C737.989 327.344 731.63 324.71 725 324.709H675Z" fill="#111"/>
</svg>
