<svg width="2100" height="600" viewBox="0 0 2100 600" fill="none" xmlns="http://www.w3.org/2000/svg">
<rect width="2100" height="600" rx="100" fill="#333333"/>
<g clip-path="url(#clip0_55_178)">
<path d="M480.156 108.062C477.249 99.458 471.764 91.957 464.445 86.5785C457.127 81.2001 448.33 78.2049 439.25 78C432.545 78.0412 425.944 79.6639 419.984 82.7362C414.024 85.8084 408.873 90.2436 404.95 95.6812C397.24 88.648 387.186 84.7397 376.75 84.7188C370.696 84.7539 364.72 86.0839 359.222 88.6193C353.724 91.1547 348.832 94.8369 344.875 99.4188C341.171 92.9145 335.811 87.5068 329.339 83.7452C322.868 79.9835 315.517 78.002 308.031 78.002C300.546 78.002 293.195 79.9835 286.723 83.7452C280.252 87.5068 274.892 92.9145 271.188 99.4188C267.223 94.829 262.322 91.1421 256.813 88.6064C251.303 86.0707 245.315 84.745 239.25 84.7188C228.814 84.7397 218.76 88.648 211.05 95.6812C207.127 90.2436 201.976 85.8084 196.016 82.7362C190.056 79.6639 183.455 78.0412 176.75 78C167.67 78.2049 158.873 81.2001 151.555 86.5785C144.236 91.957 138.751 99.458 135.844 108.062C127.428 111.722 120.288 117.799 115.331 125.523C110.374 133.246 107.822 142.268 108 151.444C107.746 162.391 111.425 173.067 118.37 181.533C125.314 190 135.064 195.696 145.85 197.588C147.111 208.472 152.076 218.592 159.913 226.25C160.607 226.879 161.433 227.346 162.33 227.617C163.227 227.889 164.173 227.958 165.1 227.819C166.044 227.68 166.947 227.337 167.744 226.813C168.542 226.29 169.216 225.598 169.719 224.788C170.25 223.945 170.567 222.986 170.644 221.994C171.405 213.425 175.335 205.448 181.666 199.623C187.997 193.799 196.273 190.546 204.875 190.5C210.693 190.491 216.418 191.967 221.506 194.787C226.595 197.608 230.88 201.68 233.956 206.619C234.558 207.462 235.352 208.15 236.272 208.625C237.193 209.099 238.214 209.347 239.25 209.347C240.286 209.347 241.307 209.099 242.228 208.625C243.149 208.15 243.943 207.462 244.544 206.619C247.627 201.686 251.913 197.619 257 194.799C262.088 191.98 267.809 190.5 273.625 190.5C279.442 190.5 285.163 191.98 290.25 194.799C295.337 197.619 299.624 201.686 302.706 206.619C303.308 207.462 304.102 208.15 305.022 208.625C305.943 209.099 306.964 209.347 308 209.347C309.036 209.347 310.057 209.099 310.978 208.625C311.899 208.15 312.693 207.462 313.294 206.619C316.377 201.686 320.663 197.619 325.75 194.799C330.838 191.98 336.559 190.5 342.375 190.5C348.192 190.5 353.913 191.98 359 194.799C364.087 197.619 368.374 201.686 371.456 206.619C372.058 207.462 372.852 208.15 373.772 208.625C374.693 209.099 375.714 209.347 376.75 209.347C377.786 209.347 378.807 209.099 379.728 208.625C380.649 208.15 381.443 207.462 382.044 206.619C385.12 201.68 389.405 197.608 394.494 194.787C399.583 191.967 405.307 190.491 411.125 190.5C419.728 190.546 428.004 193.799 434.335 199.623C440.665 205.448 444.596 213.425 445.356 221.994C445.49 223.074 445.856 224.113 446.431 225.037C446.923 225.832 447.586 226.505 448.373 227.009C449.159 227.514 450.048 227.835 450.975 227.95C451.232 227.982 451.491 227.999 451.75 228C453.368 228 454.923 227.373 456.088 226.25C463.924 218.592 468.889 208.472 470.15 197.588C480.936 195.696 490.686 190 497.631 181.533C504.575 173.067 508.254 162.391 508 151.444C508.178 142.268 505.627 133.246 500.67 125.523C495.712 117.799 488.573 111.722 480.156 108.062Z" fill="#FFF3B0"/>
<path d="M314.75 113.5H302.25C300.592 113.5 299.003 112.842 297.831 111.669C296.658 110.497 296 108.908 296 107.25C296 105.592 296.658 104.003 297.831 102.831C299.003 101.658 300.592 101 302.25 101H314.75C316.408 101 317.997 101.658 319.169 102.831C320.342 104.003 321 105.592 321 107.25C321 108.908 320.342 110.497 319.169 111.669C317.997 112.842 316.408 113.5 314.75 113.5Z" fill="#EABC75"/>
<path d="M282.74 162.32L270.43 164.49C268.798 164.778 267.118 164.406 265.76 163.455C264.402 162.504 263.478 161.053 263.19 159.421C262.902 157.788 263.274 156.108 264.225 154.751C265.176 153.393 266.627 152.468 268.26 152.18L280.57 150.01C282.202 149.722 283.882 150.094 285.24 151.045C286.598 151.996 287.522 153.447 287.81 155.079C288.098 156.712 287.725 158.392 286.775 159.75C285.824 161.107 284.373 162.032 282.74 162.32Z" fill="#EABC75"/>
<path d="M480.156 108.062C477.249 99.458 471.764 91.957 464.445 86.5785C457.127 81.2001 448.33 78.2049 439.25 78C437.156 78.0157 435.067 78.1912 433 78.525C440.892 79.8957 448.271 83.3597 454.367 88.5554C460.463 93.751 465.052 100.488 467.656 108.062C476.073 111.722 483.212 117.799 488.169 125.523C493.127 133.246 495.678 142.268 495.5 151.444C495.754 162.391 492.075 173.067 485.131 181.533C478.186 190 468.436 195.696 457.65 197.588C456.457 207.304 452.312 216.42 445.775 223.706C445.945 224.167 446.154 224.613 446.4 225.037C446.892 225.832 447.555 226.505 448.341 227.009C449.128 227.514 450.017 227.835 450.944 227.95C451.211 227.984 451.48 228 451.75 228C453.368 228 454.923 227.373 456.088 226.25C463.924 218.592 468.889 208.472 470.15 197.588C480.936 195.696 490.686 190 497.631 181.533C504.575 173.067 508.254 162.391 508 151.444C508.178 142.268 505.627 133.246 500.669 125.523C495.712 117.799 488.573 111.722 480.156 108.062Z" fill="#FDD598"/>
<path d="M412.379 156.81L399.896 157.464C398.24 157.551 396.618 156.977 395.386 155.868C394.155 154.758 393.414 153.205 393.327 151.55C393.24 149.895 393.815 148.273 394.924 147.041C396.033 145.809 397.586 145.068 399.241 144.981L411.724 144.327C413.38 144.241 415.002 144.815 416.233 145.924C417.465 147.033 418.206 148.586 418.293 150.242C418.38 151.897 417.805 153.519 416.696 154.751C415.587 155.983 414.034 156.723 412.379 156.81Z" fill="#EABC75"/>
<path d="M178.74 115.32L166.43 117.49C164.798 117.778 163.118 117.406 161.76 116.455C160.402 115.504 159.478 114.053 159.19 112.421C158.902 110.788 159.275 109.108 160.225 107.751C161.176 106.393 162.627 105.468 164.26 105.18L176.57 103.01C178.202 102.722 179.882 103.094 181.24 104.045C182.598 104.996 183.522 106.447 183.81 108.079C184.098 109.712 183.726 111.392 182.775 112.75C181.824 114.107 180.373 115.032 178.74 115.32Z" fill="#EABC75"/>
<path d="M158.182 160.021L145.729 158.932C144.078 158.787 142.552 157.993 141.486 156.723C140.421 155.453 139.903 153.812 140.048 152.161C140.192 150.509 140.987 148.983 142.257 147.918C143.526 146.852 145.167 146.335 146.819 146.479L159.271 147.569C160.922 147.713 162.449 148.508 163.514 149.778C164.58 151.047 165.097 152.688 164.953 154.34C164.808 155.991 164.014 157.517 162.744 158.583C161.474 159.648 159.833 160.166 158.182 160.021Z" fill="#EABC75"/>
<path d="M214.75 145.5H202.25C200.592 145.5 199.003 144.842 197.831 143.669C196.658 142.497 196 140.908 196 139.25C196 137.592 196.658 136.003 197.831 134.831C199.003 133.658 200.592 133 202.25 133H214.75C216.408 133 217.997 133.658 219.169 134.831C220.342 136.003 221 137.592 221 139.25C221 140.908 220.342 142.497 219.169 143.669C217.997 144.842 216.408 145.5 214.75 145.5Z" fill="#EABC75"/>
<path d="M384.111 123.927L372.037 120.692C370.436 120.263 369.071 119.215 368.242 117.78C367.413 116.344 367.189 114.638 367.618 113.037C368.047 111.436 369.094 110.071 370.53 109.242C371.965 108.413 373.671 108.189 375.272 108.618L387.346 111.853C388.948 112.282 390.313 113.329 391.142 114.765C391.97 116.2 392.195 117.906 391.766 119.508C391.337 121.109 390.289 122.474 388.854 123.303C387.418 124.131 385.712 124.356 384.111 123.927Z" fill="#EABC75"/>
<path d="M465.724 158.464L453.242 157.81C451.586 157.723 450.033 156.982 448.924 155.751C447.815 154.519 447.24 152.897 447.327 151.241C447.414 149.586 448.155 148.033 449.387 146.924C450.618 145.815 452.24 145.24 453.896 145.327L466.379 145.981C468.034 146.068 469.587 146.809 470.696 148.041C471.805 149.273 472.38 150.895 472.293 152.55C472.206 154.205 471.465 155.758 470.234 156.867C469.002 157.977 467.38 158.551 465.724 158.464Z" fill="#EABC75"/>
<path d="M445.696 112.382L433.368 114.445C431.733 114.719 430.056 114.332 428.707 113.369C427.357 112.407 426.445 110.948 426.172 109.313C425.898 107.678 426.285 106.001 427.248 104.652C428.21 103.302 429.67 102.39 431.304 102.117L443.633 100.054C445.268 99.7802 446.944 100.167 448.294 101.13C449.643 102.092 450.555 103.552 450.829 105.187C451.102 106.821 450.715 108.498 449.753 109.847C448.79 111.197 447.331 112.109 445.696 112.382Z" fill="#EABC75"/>
<path d="M342.75 145.5H330.25C328.592 145.5 327.003 144.842 325.831 143.669C324.658 142.497 324 140.908 324 139.25C324 137.592 324.658 136.003 325.831 134.831C327.003 133.658 328.592 133 330.25 133H342.75C344.408 133 345.997 133.658 347.169 134.831C348.342 136.003 349 137.592 349 139.25C349 140.908 348.342 142.497 347.169 143.669C345.997 144.842 344.408 145.5 342.75 145.5Z" fill="#EABC75"/>
<path d="M255.57 126.491L243.26 124.32C241.627 124.032 240.176 123.108 239.225 121.75C238.274 120.392 237.902 118.712 238.19 117.08C238.478 115.447 239.402 113.996 240.76 113.045C242.118 112.095 243.798 111.722 245.43 112.01L257.74 114.181C259.373 114.469 260.824 115.393 261.775 116.751C262.725 118.109 263.098 119.789 262.81 121.421C262.522 123.053 261.598 124.505 260.24 125.455C258.882 126.406 257.202 126.779 255.57 126.491Z" fill="#EABC75"/>
<path d="M247.163 200.725C247.111 199.429 246.657 198.18 245.864 197.153C245.072 196.126 243.979 195.372 242.738 194.994C242.084 194.804 241.406 194.713 240.725 194.725C236.344 189.476 230.861 185.256 224.665 182.365C218.469 179.474 211.712 177.984 204.875 178C193.14 178.065 181.852 182.505 173.218 190.451C164.583 198.398 159.224 209.28 158.187 220.969C158.087 222.256 158 223.556 158 224.875C158 225.313 158 225.531 183.031 472.375C183.186 473.917 183.908 475.346 185.057 476.385C186.206 477.425 187.701 478 189.25 478H251.75C252.592 478.001 253.426 477.831 254.201 477.502C254.976 477.172 255.676 476.689 256.26 476.082C256.844 475.475 257.299 474.756 257.598 473.969C257.897 473.181 258.034 472.342 258 471.5L247.163 200.725Z" fill="#ADB5BD"/>
<path d="M313.294 199.969C309.243 193.479 303.659 188.084 297.034 184.258C290.409 180.432 282.945 178.293 275.3 178.027C267.654 177.762 260.06 179.379 253.185 182.736C246.311 186.093 240.367 191.088 235.875 197.281C235.041 198.422 234.618 199.813 234.675 201.225L245.5 472C245.565 473.614 246.252 475.14 247.417 476.259C248.582 477.377 250.135 478.001 251.75 478H308C309.658 478 311.247 477.342 312.42 476.17C313.592 474.997 314.25 473.408 314.25 471.75V203.294C314.248 202.118 313.917 200.966 313.294 199.969Z" fill="#495057"/>
<path d="M457.813 220.969C456.779 209.279 451.421 198.395 442.786 190.448C434.15 182.501 422.861 178.062 411.125 178C404.288 177.984 397.531 179.474 391.335 182.365C385.139 185.256 379.656 189.476 375.275 194.725C374.594 194.709 373.915 194.8 373.263 194.994C372.021 195.372 370.929 196.126 370.136 197.153C369.343 198.18 368.889 199.429 368.838 200.725L358 471.5C357.966 472.342 358.103 473.181 358.402 473.969C358.701 474.756 359.156 475.475 359.74 476.082C360.324 476.689 361.024 477.172 361.799 477.502C362.574 477.831 363.408 478.001 364.25 478H426.75C428.305 478.008 429.807 477.436 430.962 476.396C432.118 475.356 432.845 473.922 433 472.375L458 225.5C458 225.288 458.031 225.075 458.031 224.875C458 223.556 457.913 222.256 457.813 220.969Z" fill="#495057"/>
<path d="M457.813 220.968C457.326 214.62 455.542 208.439 452.57 202.808C449.598 197.177 445.502 192.217 440.536 188.233C435.569 184.249 429.838 181.326 423.697 179.647C417.555 177.967 411.134 177.566 404.832 178.468C415.391 179.93 425.143 184.929 432.495 192.648C439.848 200.367 444.366 210.35 445.313 220.968C445.413 222.256 445.5 223.556 445.5 224.875C445.5 225.081 445.5 225.293 445.469 225.5L420.5 472.375C420.345 473.922 419.618 475.355 418.463 476.395C417.307 477.435 415.805 478.007 414.25 478H426.75C428.305 478.007 429.807 477.435 430.963 476.395C432.118 475.355 432.845 473.922 433 472.375L458 225.5C458 225.287 458.032 225.075 458.032 224.875C458 223.556 457.913 222.256 457.813 220.968Z" fill="#343A40"/>
<path d="M380.125 197.281C375.633 191.088 369.689 186.093 362.815 182.736C355.94 179.379 348.346 177.762 340.701 178.027C333.055 178.293 325.591 180.432 318.966 184.258C312.341 188.084 306.758 193.479 302.706 199.969C302.083 200.966 301.752 202.118 301.75 203.294V471.75C301.75 473.408 302.408 474.997 303.581 476.17C304.753 477.342 306.342 478 308 478H364.25C365.865 478.001 367.418 477.377 368.583 476.259C369.749 475.14 370.435 473.614 370.5 472L381.331 201.225C381.387 199.812 380.962 198.422 380.125 197.281Z" fill="#ADB5BD"/>
<path d="M228 328C228 283.817 263.817 248 308 248C352.183 248 388 283.817 388 328C388 372.183 352.183 408 308 408C263.817 408 228 372.183 228 328Z" fill="white"/>
<rect x="233" y="253" width="150" height="150" rx="75" fill="#EF233C"/>
<rect x="238" y="258" width="140" height="140" rx="70" fill="white"/>
<path d="M283.63 297.2C287.37 294.78 291.367 292.91 295.62 291.59C299.947 290.197 304.163 289.5 308.27 289.5C308.783 289.5 309.333 289.537 309.92 289.61C310.58 289.61 311.497 289.647 312.67 289.72L305.52 323.38C308.6 319.127 313.513 312.49 320.26 303.47C327.08 294.45 330.49 289.977 330.49 290.05H342.04L311.46 325.25C311.753 325.25 312.01 325.25 312.23 325.25C312.523 325.25 312.963 325.213 313.55 325.14H315.31C319.93 325.14 323.34 326.093 325.54 328C327.813 329.907 328.95 332.877 328.95 336.91C328.95 338.597 328.767 340.54 328.4 342.74C328.033 344.867 327.227 348.13 325.98 352.53C324.953 356.27 324.293 358.947 324 360.56C323.707 362.173 323.56 363.567 323.56 364.74C323.56 366.427 323.927 367.93 324.66 369.25C325.467 370.57 326.53 371.487 327.85 372C325.723 372.587 323.707 373.027 321.8 373.32C319.967 373.687 318.353 373.87 316.96 373.87C314.1 373.87 311.937 373.247 310.47 372C309.077 370.827 308.38 368.993 308.38 366.5C308.38 365.253 308.563 363.75 308.93 361.99C309.297 360.157 310.03 357.15 311.13 352.97C312.377 348.423 313.183 345.123 313.55 343.07C313.99 340.943 314.21 339.11 314.21 337.57C314.21 335.077 313.66 333.207 312.56 331.96C311.46 330.713 309.81 330.09 307.61 330.09C307.243 330.09 306.803 330.127 306.29 330.2C305.85 330.273 305.08 330.383 303.98 330.53L295.18 372H279.34L295.29 297.2C290.303 299.253 286.49 302.37 283.85 306.55C281.21 310.657 279.89 315.57 279.89 321.29C279.89 322.683 279.963 323.893 280.11 324.92C280.33 325.947 280.66 326.937 281.1 327.89C281.247 328.183 281.32 328.403 281.32 328.55C281.393 328.623 281.43 328.697 281.43 328.77C277.323 328.77 274.317 327.927 272.41 326.24C270.577 324.48 269.66 321.767 269.66 318.1C269.66 314.433 270.87 310.767 273.29 307.1C275.783 303.433 279.23 300.133 283.63 297.2Z" fill="#D90429"/>
</g>
<path d="M570.803 395V213.182H609.244V293.349H611.641L677.07 213.182H723.146L655.675 294.592L723.945 395H677.958L628.153 320.249L609.244 343.331V395H570.803ZM751.001 395V258.636H788.82V395H751.001ZM769.999 241.058C764.376 241.058 759.553 239.194 755.528 235.465C751.563 231.677 749.58 227.15 749.58 221.882C749.58 216.674 751.563 212.205 755.528 208.477C759.553 204.689 764.376 202.795 769.999 202.795C775.622 202.795 780.416 204.689 784.381 208.477C788.406 212.205 790.418 216.674 790.418 221.882C790.418 227.15 788.406 231.677 784.381 235.465C780.416 239.194 775.622 241.058 769.999 241.058ZM856.935 316.165V395H819.116V258.636H855.16V282.695H856.758C859.776 274.764 864.837 268.491 871.939 263.874C879.041 259.199 887.653 256.861 897.773 256.861C907.243 256.861 915.5 258.932 922.543 263.075C929.586 267.218 935.06 273.137 938.967 280.831C942.873 288.466 944.826 297.58 944.826 308.175V395H907.006V314.922C907.066 306.577 904.935 300.066 900.614 295.391C896.294 290.656 890.346 288.288 882.77 288.288C877.68 288.288 873.182 289.383 869.276 291.573C865.429 293.763 862.41 296.959 860.22 301.161C858.089 305.304 856.995 310.305 856.935 316.165ZM1036.25 397.663C1022.46 397.663 1010.53 394.734 1000.47 388.874C990.465 382.956 982.742 374.729 977.297 364.194C971.852 353.6 969.129 341.319 969.129 327.351C969.129 313.265 971.852 300.954 977.297 290.419C982.742 279.825 990.465 271.598 1000.47 265.739C1010.53 259.82 1022.46 256.861 1036.25 256.861C1050.04 256.861 1061.93 259.82 1071.93 265.739C1082 271.598 1089.75 279.825 1095.19 290.419C1100.64 300.954 1103.36 313.265 1103.36 327.351C1103.36 341.319 1100.64 353.6 1095.19 364.194C1089.75 374.729 1082 382.956 1071.93 388.874C1061.93 394.734 1050.04 397.663 1036.25 397.663ZM1036.42 368.366C1042.7 368.366 1047.93 366.591 1052.14 363.04C1056.34 359.429 1059.51 354.517 1061.64 348.303C1063.83 342.088 1064.92 335.015 1064.92 327.085C1064.92 319.154 1063.83 312.081 1061.64 305.866C1059.51 299.652 1056.34 294.74 1052.14 291.129C1047.93 287.519 1042.7 285.714 1036.42 285.714C1030.09 285.714 1024.76 287.519 1020.44 291.129C1016.18 294.74 1012.96 299.652 1010.77 305.866C1008.64 312.081 1007.57 319.154 1007.57 327.085C1007.57 335.015 1008.64 342.088 1010.77 348.303C1012.96 354.517 1016.18 359.429 1020.44 363.04C1024.76 366.591 1030.09 368.366 1036.42 368.366ZM1186.53 395V213.182H1309.04V244.876H1224.97V288.2H1302.74V319.893H1224.97V363.306H1309.39V395H1186.53ZM1412.22 258.636V287.045H1328.06V258.636H1412.22ZM1347.33 395V248.782C1347.33 238.898 1349.25 230.701 1353.1 224.19C1357 217.68 1362.33 212.797 1369.08 209.542C1375.82 206.287 1383.49 204.659 1392.07 204.659C1397.87 204.659 1403.17 205.103 1407.96 205.991C1412.81 206.879 1416.42 207.678 1418.79 208.388L1412.04 236.797C1410.56 236.323 1408.73 235.879 1406.54 235.465C1404.41 235.051 1402.22 234.844 1399.97 234.844C1394.41 234.844 1390.53 236.146 1388.34 238.75C1386.15 241.295 1385.06 244.876 1385.06 249.492V395H1347.33ZM1508.66 258.636V287.045H1424.5V258.636H1508.66ZM1443.76 395V248.782C1443.76 238.898 1445.68 230.701 1449.53 224.19C1453.44 217.68 1458.76 212.797 1465.51 209.542C1472.26 206.287 1479.92 204.659 1488.5 204.659C1494.31 204.659 1499.6 205.103 1504.4 205.991C1509.25 206.879 1512.86 207.678 1515.23 208.388L1508.48 236.797C1507 236.323 1505.17 235.879 1502.98 235.465C1500.85 235.051 1498.66 234.844 1496.41 234.844C1490.84 234.844 1486.97 236.146 1484.78 238.75C1482.59 241.295 1481.49 244.876 1481.49 249.492V395H1443.76ZM1589.02 397.663C1575 397.663 1562.92 394.822 1552.8 389.141C1542.74 383.4 1534.99 375.291 1529.54 364.815C1524.1 354.28 1521.38 341.822 1521.38 327.44C1521.38 313.413 1524.1 301.102 1529.54 290.508C1534.99 279.914 1542.65 271.657 1552.54 265.739C1562.48 259.82 1574.14 256.861 1587.52 256.861C1596.51 256.861 1604.89 258.311 1612.64 261.211C1620.45 264.052 1627.26 268.343 1633.06 274.084C1638.92 279.825 1643.48 287.045 1646.73 295.746C1649.99 304.387 1651.61 314.508 1651.61 326.108V336.495H1536.47V313.058H1616.01C1616.01 307.612 1614.83 302.789 1612.46 298.587C1610.09 294.384 1606.81 291.1 1602.61 288.732C1598.46 286.306 1593.64 285.092 1588.14 285.092C1582.4 285.092 1577.31 286.424 1572.87 289.087C1568.49 291.692 1565.05 295.213 1562.57 299.652C1560.08 304.032 1558.81 308.915 1558.75 314.3V336.584C1558.75 343.331 1559.99 349.161 1562.48 354.073C1565.02 358.986 1568.61 362.773 1573.22 365.437C1577.84 368.1 1583.31 369.432 1589.65 369.432C1593.85 369.432 1597.7 368.84 1601.19 367.656C1604.68 366.473 1607.67 364.697 1610.15 362.33C1612.64 359.962 1614.53 357.062 1615.84 353.629L1650.81 355.938C1649.04 364.342 1645.4 371.681 1639.89 377.955C1634.45 384.169 1627.41 389.022 1618.77 392.514C1610.18 395.947 1600.27 397.663 1589.02 397.663ZM1737.91 397.663C1723.94 397.663 1711.92 394.704 1701.86 388.786C1691.86 382.808 1684.17 374.522 1678.78 363.928C1673.45 353.333 1670.79 341.141 1670.79 327.351C1670.79 313.383 1673.48 301.132 1678.87 290.597C1684.31 280.002 1692.04 271.746 1702.04 265.827C1712.04 259.85 1723.94 256.861 1737.73 256.861C1749.62 256.861 1760.04 259.021 1768.98 263.342C1777.92 267.662 1784.99 273.729 1790.2 281.541C1795.4 289.354 1798.28 298.527 1798.81 309.062H1763.12C1762.11 302.256 1759.45 296.781 1755.13 292.638C1750.87 288.436 1745.27 286.335 1738.35 286.335C1732.49 286.335 1727.37 287.933 1722.99 291.129C1718.67 294.266 1715.3 298.853 1712.87 304.89C1710.44 310.927 1709.23 318.236 1709.23 326.818C1709.23 335.518 1710.41 342.917 1712.78 349.013C1715.21 355.109 1718.61 359.755 1722.99 362.951C1727.37 366.147 1732.49 367.745 1738.35 367.745C1742.67 367.745 1746.55 366.857 1749.98 365.082C1753.47 363.306 1756.34 360.732 1758.59 357.358C1760.9 353.925 1762.41 349.812 1763.12 345.018H1798.81C1798.22 355.434 1795.37 364.608 1790.28 372.539C1785.25 380.411 1778.3 386.566 1769.42 391.005C1760.54 395.444 1750.04 397.663 1737.91 397.663ZM1895.55 258.636V287.045H1813.43V258.636H1895.55ZM1832.08 225.966H1869.9V353.097C1869.9 356.589 1870.43 359.311 1871.5 361.264C1872.56 363.158 1874.04 364.49 1875.93 365.259C1877.89 366.029 1880.14 366.413 1882.68 366.413C1884.46 366.413 1886.23 366.265 1888.01 365.969C1889.78 365.614 1891.14 365.348 1892.09 365.17L1898.04 393.313C1896.15 393.905 1893.48 394.586 1890.05 395.355C1886.62 396.184 1882.44 396.687 1877.53 396.864C1868.42 397.219 1860.43 396.006 1853.56 393.224C1846.76 390.443 1841.46 386.122 1837.67 380.263C1833.88 374.403 1832.02 367.005 1832.08 358.068V225.966Z" fill="#F1F1F1"/>
<defs>
<clipPath id="clip0_55_178">
<rect width="400" height="400" fill="white" transform="translate(108 78)"/>
</clipPath>
</defs>
</svg>
