<svg width="434" height="584" viewBox="0 0 434 584" fill="none" xmlns="http://www.w3.org/2000/svg">
<path d="M408.667 583.666C403.58 583.566 398.623 582.066 394.333 579.333L217 455.666L39.6667 579.333C35.7497 581.716 31.2524 582.98 26.6667 582.98C22.081 582.98 17.5837 581.716 13.6667 579.333C9.83038 577.356 6.58037 574.406 4.2407 570.78C1.90104 567.153 0.553707 562.976 0.333374 558.666V91.9997C0.333374 67.688 9.99104 44.3723 27.182 27.1817C44.3727 9.99067 67.6884 0.333008 92 0.333008H342C366.31 0.333008 389.627 9.99067 406.817 27.1817C424.01 44.3723 433.667 67.688 433.667 91.9997V558.666C433.683 563.206 432.447 567.66 430.097 571.543C427.743 575.423 424.363 578.58 420.333 580.666C416.757 582.63 412.747 583.66 408.667 583.666ZM217 400.333C222.107 400.28 227.11 401.793 231.333 404.666L383.667 510.666V91.9997C383.667 80.949 379.277 70.351 371.463 62.537C363.65 54.723 353.05 50.333 342 50.333H92C80.9494 50.333 70.3514 54.723 62.5374 62.537C54.7234 70.351 50.3334 80.949 50.3334 91.9997V510.666L202.667 404.666C206.89 401.793 211.893 400.28 217 400.333Z" fill="#1D1D1D"/>
</svg>
