<svg width="773" height="675" viewBox="0 0 773 675" fill="none" xmlns="http://www.w3.org/2000/svg">
<g clipPath="url(#clip0_73_4)">
<path d="M579.746 61.8203C576.482 52.1403 570.325 43.7016 562.11 37.6509C553.895 31.6001 544.021 28.2305 533.828 28C526.302 28.0463 518.892 29.8719 512.202 33.3282C505.512 36.7845 499.73 41.7741 495.327 47.8914C486.672 39.979 475.386 35.5821 463.672 35.5586C456.876 35.5982 450.168 37.0943 443.997 39.9467C437.825 42.799 432.334 46.9415 427.892 52.0961C423.734 44.7788 417.718 38.6952 410.454 34.4633C403.19 30.2315 394.937 28.0023 386.535 28.0023C378.133 28.0023 369.881 30.2315 362.617 34.4633C355.353 38.6952 349.336 44.7788 345.178 52.0961C340.728 46.9326 335.226 42.7849 329.042 39.9322C322.858 37.0795 316.136 35.5881 309.328 35.5586C297.614 35.5821 286.328 39.979 277.674 47.8914C273.27 41.7741 267.488 36.7845 260.798 33.3282C254.108 29.8719 246.699 28.0463 239.172 28C228.98 28.2305 219.105 31.6001 210.89 37.6509C202.675 43.7016 196.518 52.1403 193.255 61.8203C183.808 65.9374 175.793 72.774 170.229 81.4629C164.664 90.1519 161.8 100.301 162 110.624C161.715 122.94 165.844 134.95 173.64 144.475C181.435 154 192.38 160.408 204.487 162.536C205.902 174.781 211.476 186.166 220.272 194.781C221.052 195.489 221.979 196.014 222.986 196.32C223.993 196.625 225.055 196.702 226.095 196.546C227.155 196.39 228.168 196.004 229.063 195.415C229.959 194.826 230.715 194.048 231.279 193.136C231.875 192.188 232.232 191.11 232.318 189.993C233.172 180.353 237.584 171.379 244.69 164.826C251.796 158.274 261.086 154.614 270.742 154.562C277.273 154.553 283.699 156.213 289.411 159.386C295.123 162.559 299.933 167.14 303.386 172.696C304.061 173.645 304.952 174.419 305.986 174.953C307.019 175.487 308.165 175.765 309.328 175.765C310.491 175.765 311.637 175.487 312.671 174.953C313.704 174.419 314.596 173.645 315.271 172.696C318.731 167.147 323.543 162.571 329.253 159.399C334.964 156.227 341.385 154.563 347.914 154.563C354.443 154.563 360.865 156.227 366.575 159.399C372.286 162.571 377.098 167.147 380.558 172.696C381.233 173.645 382.124 174.419 383.158 174.953C384.191 175.487 385.337 175.765 386.5 175.765C387.663 175.765 388.809 175.487 389.843 174.953C390.876 174.419 391.768 173.645 392.442 172.696C395.903 167.147 400.714 162.571 406.425 159.399C412.135 156.227 418.557 154.563 425.086 154.563C431.615 154.563 438.037 156.227 443.747 159.399C449.458 162.571 454.27 167.147 457.73 172.696C458.405 173.645 459.296 174.419 460.33 174.953C461.363 175.487 462.509 175.765 463.672 175.765C464.835 175.765 465.981 175.487 467.015 174.953C468.048 174.419 468.94 173.645 469.614 172.696C473.067 167.14 477.877 162.559 483.589 159.386C489.302 156.213 495.727 154.553 502.258 154.562C511.914 154.614 521.204 158.274 528.31 164.826C535.417 171.379 539.829 180.353 540.683 189.993C540.832 191.209 541.244 192.377 541.889 193.417C542.441 194.311 543.186 195.069 544.068 195.636C544.951 196.203 545.949 196.564 546.99 196.694C547.278 196.73 547.569 196.749 547.86 196.75C549.676 196.75 551.421 196.044 552.728 194.781C561.525 186.166 567.098 174.781 568.514 162.536C580.621 160.408 591.565 154 599.36 144.475C607.156 134.95 611.286 122.94 611 110.624C611.2 100.301 608.336 90.1519 602.772 81.4629C597.207 72.774 589.193 65.9374 579.746 61.8203Z" fill="#FFF3B0"/>
<path d="M394.077 67.9375H380.046C378.185 67.9375 376.4 67.1967 375.085 65.8781C373.769 64.5595 373.03 62.7711 373.03 60.9062C373.03 59.0414 373.769 57.253 375.085 55.9344C376.4 54.6158 378.185 53.875 380.046 53.875H394.077C395.937 53.875 397.722 54.6158 399.038 55.9344C400.353 57.253 401.092 59.0414 401.092 60.9062C401.092 62.7711 400.353 64.5595 399.038 65.8781C397.722 67.1967 395.937 67.9375 394.077 67.9375Z" fill="#EABC75"/>
<path d="M358.146 122.86L344.328 125.302C342.495 125.626 340.61 125.207 339.086 124.137C337.561 123.067 336.524 121.435 336.201 119.598C335.877 117.762 336.295 115.872 337.363 114.344C338.43 112.817 340.059 111.777 341.891 111.453L355.709 109.011C357.542 108.687 359.428 109.106 360.952 110.176C362.476 111.245 363.514 112.878 363.837 114.714C364.16 116.551 363.742 118.441 362.675 119.968C361.607 121.496 359.978 122.536 358.146 122.86Z" fill="#EABC75"/>
<path d="M579.745 61.8203C576.482 52.1403 570.325 43.7016 562.11 37.6509C553.895 31.6001 544.02 28.2305 533.828 28C531.478 28.0177 529.133 28.2151 526.812 28.5906C535.671 30.1327 543.954 34.0297 550.797 39.8748C557.639 45.7199 562.791 53.2988 565.714 61.8203C575.161 65.9374 583.176 72.774 588.74 81.4629C594.305 90.1519 597.169 100.301 596.969 110.624C597.254 122.94 593.124 134.95 585.329 144.475C577.534 154 566.589 160.408 554.482 162.536C553.143 173.467 548.49 183.722 541.152 191.92C541.343 192.438 541.577 192.939 541.854 193.417C542.406 194.311 543.15 195.069 544.033 195.636C544.916 196.203 545.914 196.564 546.954 196.694C547.255 196.731 547.557 196.75 547.859 196.75C549.675 196.75 551.421 196.044 552.728 194.781C561.525 186.166 567.098 174.781 568.513 162.536C580.62 160.408 591.565 154 599.36 144.475C607.156 134.95 611.286 122.94 611 110.624C611.2 100.301 608.336 90.1519 602.771 81.4629C597.207 72.774 589.193 65.9374 579.745 61.8203Z" fill="#FDD598"/>
<path d="M503.665 116.661L489.653 117.397C487.795 117.495 485.974 116.849 484.591 115.601C483.208 114.353 482.377 112.606 482.28 110.744C482.182 108.882 482.827 107.057 484.072 105.671C485.317 104.285 487.06 103.452 488.918 103.354L502.93 102.618C504.788 102.521 506.609 103.167 507.992 104.415C509.375 105.662 510.206 107.41 510.304 109.272C510.401 111.134 509.756 112.959 508.511 114.345C507.266 115.73 505.523 116.564 503.665 116.661Z" fill="#EABC75"/>
<path d="M241.406 69.9848L227.588 72.4267C225.756 72.7505 223.87 72.3316 222.346 71.262C220.822 70.1923 219.784 68.5597 219.461 66.7233C219.138 64.8868 219.556 62.9969 220.623 61.4693C221.69 59.9418 223.319 58.9017 225.151 58.5779L238.97 56.1359C240.802 55.8121 242.688 56.2311 244.212 57.3007C245.736 58.3703 246.774 60.0029 247.097 61.8394C247.42 63.6759 247.002 65.5658 245.935 67.0933C244.867 68.6209 243.238 69.661 241.406 69.9848Z" fill="#EABC75"/>
<path d="M218.329 120.274L204.351 119.048C202.498 118.886 200.784 117.992 199.588 116.563C198.392 115.135 197.811 113.288 197.974 111.431C198.136 109.573 199.028 107.856 200.453 106.657C201.878 105.459 203.72 104.877 205.574 105.039L219.552 106.265C221.405 106.427 223.119 107.321 224.315 108.75C225.511 110.178 226.092 112.024 225.929 113.882C225.767 115.74 224.875 117.457 223.45 118.655C222.025 119.854 220.183 120.436 218.329 120.274Z" fill="#EABC75"/>
<path d="M281.827 103.938H267.796C265.935 103.938 264.15 103.197 262.835 101.878C261.519 100.559 260.78 98.7711 260.78 96.9062C260.78 95.0414 261.519 93.253 262.835 91.9344C264.15 90.6158 265.935 89.875 267.796 89.875H281.827C283.687 89.875 285.472 90.6158 286.788 91.9344C288.103 93.253 288.842 95.0414 288.842 96.9062C288.842 98.7711 288.103 100.559 286.788 101.878C285.472 103.197 283.687 103.938 281.827 103.938Z" fill="#EABC75"/>
<path d="M471.935 79.6678L458.382 76.0282C456.584 75.5455 455.052 74.3671 454.122 72.7521C453.191 71.1371 452.939 69.2179 453.421 67.4167C453.902 65.6154 455.078 64.0796 456.69 63.1472C458.301 62.2148 460.216 61.9622 462.013 62.4448L475.566 66.0845C477.364 66.5671 478.896 67.7455 479.826 69.3605C480.757 70.9755 481.009 72.8947 480.527 74.696C480.046 76.4972 478.87 78.033 477.258 78.9654C475.647 79.8978 473.732 80.1504 471.935 79.6678Z" fill="#EABC75"/>
<path d="M563.546 118.522L549.534 117.786C547.675 117.689 545.932 116.855 544.687 115.469C543.442 114.084 542.797 112.259 542.895 110.397C542.992 108.534 543.824 106.787 545.206 105.539C546.589 104.292 548.41 103.645 550.268 103.743L564.28 104.479C566.138 104.577 567.881 105.41 569.126 106.796C570.371 108.182 571.016 110.006 570.919 111.869C570.821 113.731 569.99 115.478 568.607 116.726C567.224 117.974 565.404 118.62 563.546 118.522Z" fill="#EABC75"/>
<path d="M541.064 66.6802L527.225 69.0011C525.39 69.3089 523.508 68.8735 521.993 67.7906C520.478 66.7077 519.455 65.066 519.148 63.2268C518.841 61.3876 519.275 59.5014 520.356 57.9833C521.436 56.4651 523.074 55.4393 524.909 55.1315L538.748 52.8105C540.583 52.5027 542.465 52.9382 543.98 54.0211C545.495 55.104 546.518 56.7456 546.825 58.5848C547.132 60.4241 546.698 62.3102 545.617 63.8284C544.537 65.3466 542.899 66.3724 541.064 66.6802Z" fill="#EABC75"/>
<path d="M425.507 103.938H411.475C409.615 103.938 407.83 103.197 406.515 101.878C405.199 100.559 404.46 98.7711 404.46 96.9062C404.46 95.0414 405.199 93.253 406.515 91.9344C407.83 90.6158 409.615 89.875 411.475 89.875H425.507C427.367 89.875 429.152 90.6158 430.468 91.9344C431.783 93.253 432.522 95.0414 432.522 96.9062C432.522 98.7711 431.783 100.559 430.468 101.878C429.152 103.197 427.367 103.938 425.507 103.938Z" fill="#EABC75"/>
<path d="M327.647 82.5518L313.829 80.1099C311.996 79.786 310.367 78.7459 309.3 77.2184C308.233 75.6908 307.815 73.8009 308.138 71.9645C308.461 70.128 309.499 68.4954 311.023 67.4258C312.547 66.3562 314.433 65.9372 316.265 66.261L330.083 68.7029C331.916 69.0268 333.545 70.0668 334.612 71.5944C335.679 73.122 336.097 75.0119 335.774 76.8483C335.451 78.6848 334.413 80.3174 332.889 81.387C331.365 82.4566 329.479 82.8756 327.647 82.5518Z" fill="#EABC75"/>
<path d="M318.21 166.066C318.152 164.607 317.643 163.203 316.753 162.048C315.863 160.892 314.636 160.043 313.243 159.618C312.509 159.404 311.748 159.302 310.984 159.316C306.067 153.41 299.912 148.663 292.957 145.411C286.001 142.159 278.417 140.482 270.742 140.5C257.57 140.573 244.899 145.568 235.207 154.508C225.515 163.448 219.499 175.69 218.335 188.84C218.223 190.288 218.125 191.751 218.125 193.235C218.125 193.727 218.125 193.973 246.223 471.672C246.396 473.406 247.207 475.014 248.497 476.183C249.787 477.353 251.464 478 253.203 478H323.359C324.305 478.001 325.241 477.81 326.111 477.439C326.981 477.069 327.767 476.525 328.422 475.842C329.077 475.159 329.588 474.351 329.924 473.465C330.259 472.579 330.413 471.634 330.375 470.688L318.21 166.066Z" fill="#ADB5BD"/>
<path d="M392.442 165.215C387.895 157.914 381.627 151.845 374.19 147.541C366.754 143.236 358.376 140.829 349.794 140.531C341.211 140.232 332.687 142.051 324.97 145.828C317.254 149.605 310.581 155.224 305.54 162.192C304.603 163.475 304.128 165.039 304.193 166.628L316.344 471.25C316.416 473.066 317.187 474.783 318.495 476.041C319.803 477.3 321.546 478.002 323.359 478H386.5C388.361 478 390.145 477.259 391.461 475.941C392.777 474.622 393.516 472.834 393.516 470.969V168.956C393.514 167.633 393.142 166.337 392.442 165.215Z" fill="#495057"/>
<path d="M554.665 188.84C553.504 175.689 547.489 163.445 537.797 154.504C528.104 145.563 515.431 140.57 502.258 140.5C494.583 140.482 486.999 142.159 480.044 145.411C473.088 148.663 466.933 153.41 462.016 159.316C461.252 159.298 460.49 159.4 459.757 159.618C458.364 160.043 457.137 160.892 456.247 162.048C455.357 163.203 454.848 164.607 454.79 166.066L442.625 470.688C442.587 471.634 442.741 472.579 443.076 473.465C443.412 474.351 443.923 475.159 444.578 475.842C445.233 476.525 446.019 477.069 446.889 477.439C447.759 477.81 448.695 478.001 449.641 478H519.797C521.542 478.009 523.228 477.365 524.525 476.195C525.822 475.025 526.638 473.412 526.812 471.672L554.875 193.938C554.875 193.699 554.91 193.46 554.91 193.235C554.875 191.751 554.777 190.288 554.665 188.84Z" fill="#495057"/>
<path d="M554.665 188.84C554.118 181.698 552.115 174.744 548.78 168.41C545.444 162.075 540.846 156.494 535.271 152.012C529.696 147.53 523.263 144.242 516.369 142.353C509.475 140.463 502.268 140.012 495.193 141.027C507.046 142.672 517.993 148.295 526.246 156.979C534.499 165.663 539.571 176.894 540.633 188.84C540.746 190.288 540.844 191.751 540.844 193.234C540.844 193.466 540.844 193.705 540.809 193.937L512.781 471.672C512.607 473.412 511.791 475.025 510.494 476.195C509.197 477.365 507.511 478.009 505.766 478H519.797C521.542 478.009 523.228 477.365 524.525 476.195C525.823 475.025 526.638 473.412 526.813 471.672L554.875 193.937C554.875 193.698 554.91 193.459 554.91 193.234C554.875 191.751 554.777 190.288 554.665 188.84Z" fill="#343A40"/>
<path d="M467.46 162.192C462.419 155.224 455.746 149.605 448.03 145.828C440.313 142.051 431.789 140.232 423.206 140.531C414.624 140.829 406.246 143.236 398.81 147.541C391.373 151.845 385.105 157.914 380.558 165.215C379.858 166.337 379.486 167.633 379.484 168.956V470.969C379.484 472.834 380.224 474.622 381.539 475.941C382.855 477.259 384.639 478 386.5 478H449.641C451.454 478.002 453.197 477.3 454.505 476.041C455.813 474.783 456.584 473.066 456.656 471.25L468.814 166.628C468.877 165.039 468.4 163.474 467.46 162.192Z" fill="#ADB5BD"/>
<path d="M296.7 309.25C296.7 259.655 336.905 219.25 386.5 219.25V219.25C436.095 219.25 476.3 259.655 476.3 309.25V309.25C476.3 358.845 436.095 399.25 386.5 399.25V399.25C336.905 399.25 296.7 358.845 296.7 309.25V309.25Z" fill="white"/>
<rect x="302" y="224" width="170" height="170" rx="85" fill="#EF233C"/>
<rect x="307.667" y="229.667" width="158.667" height="158.667" rx="79.3333" fill="white"/>
<path d="M358.625 268C362.875 265.25 367.417 263.125 372.25 261.625C377.167 260.042 381.958 259.25 386.625 259.25C387.208 259.25 387.833 259.292 388.5 259.375C389.25 259.375 390.292 259.417 391.625 259.5L383.5 297.75C387 292.917 392.583 285.375 400.25 275.125C408 264.875 411.875 259.792 411.875 259.875H425L390.25 299.875C390.583 299.875 390.875 299.875 391.125 299.875C391.458 299.875 391.958 299.833 392.625 299.75H394.625C399.875 299.75 403.75 300.833 406.25 303C408.833 305.167 410.125 308.542 410.125 313.125C410.125 315.042 409.917 317.25 409.5 319.75C409.083 322.167 408.167 325.875 406.75 330.875C405.583 335.125 404.833 338.167 404.5 340C404.167 341.833 404 343.417 404 344.75C404 346.667 404.417 348.375 405.25 349.875C406.167 351.375 407.375 352.417 408.875 353C406.458 353.667 404.167 354.167 402 354.5C399.917 354.917 398.083 355.125 396.5 355.125C393.25 355.125 390.792 354.417 389.125 353C387.542 351.667 386.75 349.583 386.75 346.75C386.75 345.333 386.958 343.625 387.375 341.625C387.792 339.542 388.625 336.125 389.875 331.375C391.292 326.208 392.208 322.458 392.625 320.125C393.125 317.708 393.375 315.625 393.375 313.875C393.375 311.042 392.75 308.917 391.5 307.5C390.25 306.083 388.375 305.375 385.875 305.375C385.458 305.375 384.958 305.417 384.375 305.5C383.875 305.583 383 305.708 381.75 305.875L371.75 353H353.75L371.875 268C366.208 270.333 361.875 273.875 358.875 278.625C355.875 283.292 354.375 288.875 354.375 295.375C354.375 296.958 354.458 298.333 354.625 299.5C354.875 300.667 355.25 301.792 355.75 302.875C355.917 303.208 356 303.458 356 303.625C356.083 303.708 356.125 303.792 356.125 303.875C351.458 303.875 348.042 302.917 345.875 301C343.792 299 342.75 295.917 342.75 291.75C342.75 287.583 344.125 283.417 346.875 279.25C349.708 275.083 353.625 271.333 358.625 268Z" fill="#D90429"/>
</g>
<path d="M91.5852 646V558.727H110.037V597.207H111.188L142.594 558.727H164.71L132.324 597.804L165.094 646H143.02L119.114 610.119L110.037 621.199V646H91.5852ZM178.08 646V580.545H196.234V646H178.08ZM187.2 572.108C184.501 572.108 182.185 571.213 180.254 569.423C178.35 567.605 177.398 565.432 177.398 562.903C177.398 560.403 178.35 558.259 180.254 556.469C182.185 554.651 184.501 553.741 187.2 553.741C189.898 553.741 192.2 554.651 194.103 556.469C196.035 558.259 197.001 560.403 197.001 562.903C197.001 565.432 196.035 567.605 194.103 569.423C192.2 571.213 189.898 572.108 187.2 572.108ZM228.929 608.159V646H210.776V580.545H228.077V592.094H228.844C230.293 588.287 232.722 585.276 236.131 583.06C239.54 580.815 243.673 579.693 248.531 579.693C253.077 579.693 257.04 580.688 260.42 582.676C263.801 584.665 266.429 587.506 268.304 591.199C270.179 594.864 271.116 599.239 271.116 604.324V646H252.963V607.562C252.991 603.557 251.969 600.432 249.895 598.188C247.821 595.915 244.966 594.778 241.33 594.778C238.886 594.778 236.727 595.304 234.852 596.355C233.006 597.406 231.557 598.94 230.506 600.957C229.483 602.946 228.957 605.347 228.929 608.159ZM314.998 647.278C308.379 647.278 302.654 645.872 297.825 643.06C293.023 640.219 289.316 636.27 286.702 631.213C284.089 626.128 282.782 620.233 282.782 613.528C282.782 606.767 284.089 600.858 286.702 595.801C289.316 590.716 293.023 586.767 297.825 583.955C302.654 581.114 308.379 579.693 314.998 579.693C321.617 579.693 327.327 581.114 332.129 583.955C336.958 586.767 340.68 590.716 343.293 595.801C345.907 600.858 347.214 606.767 347.214 613.528C347.214 620.233 345.907 626.128 343.293 631.213C340.68 636.27 336.958 640.219 332.129 643.06C327.327 645.872 321.617 647.278 314.998 647.278ZM315.083 633.216C318.094 633.216 320.609 632.364 322.626 630.659C324.643 628.926 326.163 626.568 327.185 623.585C328.237 620.602 328.762 617.207 328.762 613.401C328.762 609.594 328.237 606.199 327.185 603.216C326.163 600.233 324.643 597.875 322.626 596.142C320.609 594.409 318.094 593.543 315.083 593.543C312.043 593.543 309.487 594.409 307.413 596.142C305.367 597.875 303.819 600.233 302.768 603.216C301.745 606.199 301.234 609.594 301.234 613.401C301.234 617.207 301.745 620.602 302.768 623.585C303.819 626.568 305.367 628.926 307.413 630.659C309.487 632.364 312.043 633.216 315.083 633.216ZM387.132 646V558.727H445.939V573.94H405.584V594.736H442.913V609.949H405.584V630.787H446.109V646H387.132ZM495.467 580.545V594.182H455.069V580.545H495.467ZM464.316 646V575.815C464.316 571.071 465.239 567.136 467.086 564.011C468.961 560.886 471.518 558.543 474.756 556.98C477.995 555.418 481.674 554.636 485.793 554.636C488.577 554.636 491.12 554.849 493.421 555.276C495.751 555.702 497.484 556.085 498.62 556.426L495.381 570.062C494.671 569.835 493.79 569.622 492.739 569.423C491.717 569.224 490.665 569.125 489.586 569.125C486.915 569.125 485.055 569.75 484.004 571C482.952 572.222 482.427 573.94 482.427 576.156V646H464.316ZM541.756 580.545V594.182H501.358V580.545H541.756ZM510.605 646V575.815C510.605 571.071 511.528 567.136 513.375 564.011C515.25 560.886 517.807 558.543 521.045 556.98C524.284 555.418 527.963 554.636 532.082 554.636C534.866 554.636 537.409 554.849 539.71 555.276C542.04 555.702 543.773 556.085 544.909 556.426L541.67 570.062C540.96 569.835 540.08 569.622 539.028 569.423C538.006 569.224 536.955 569.125 535.875 569.125C533.205 569.125 531.344 569.75 530.293 571C529.241 572.222 528.716 573.94 528.716 576.156V646H510.605ZM580.332 647.278C573.599 647.278 567.803 645.915 562.945 643.188C558.116 640.432 554.394 636.54 551.781 631.511C549.167 626.455 547.86 620.474 547.86 613.571C547.86 606.838 549.167 600.929 551.781 595.844C554.394 590.759 558.073 586.795 562.817 583.955C567.59 581.114 573.187 579.693 579.607 579.693C583.925 579.693 587.945 580.389 591.667 581.781C595.417 583.145 598.684 585.205 601.468 587.96C604.281 590.716 606.468 594.182 608.031 598.358C609.593 602.506 610.374 607.364 610.374 612.932V617.918H555.104V606.668H593.286C593.286 604.054 592.718 601.739 591.582 599.722C590.445 597.705 588.869 596.128 586.852 594.991C584.863 593.827 582.548 593.244 579.906 593.244C577.15 593.244 574.707 593.884 572.576 595.162C570.474 596.412 568.826 598.102 567.633 600.233C566.44 602.335 565.829 604.679 565.8 607.264V617.96C565.8 621.199 566.397 623.997 567.59 626.355C568.812 628.713 570.531 630.531 572.746 631.81C574.962 633.088 577.59 633.727 580.63 633.727C582.647 633.727 584.494 633.443 586.17 632.875C587.846 632.307 589.281 631.455 590.474 630.318C591.667 629.182 592.576 627.79 593.201 626.142L609.991 627.25C609.138 631.284 607.391 634.807 604.749 637.818C602.136 640.801 598.755 643.131 594.607 644.807C590.488 646.455 585.729 647.278 580.332 647.278ZM651.795 647.278C645.09 647.278 639.323 645.858 634.494 643.017C629.692 640.148 625.999 636.17 623.414 631.085C620.857 626 619.579 620.148 619.579 613.528C619.579 606.824 620.871 600.943 623.457 595.886C626.07 590.801 629.778 586.838 634.579 583.997C639.38 581.128 645.09 579.693 651.71 579.693C657.42 579.693 662.42 580.73 666.71 582.804C670.999 584.878 674.394 587.79 676.894 591.54C679.394 595.29 680.772 599.693 681.028 604.75H663.897C663.414 601.483 662.136 598.855 660.062 596.866C658.016 594.849 655.332 593.841 652.008 593.841C649.195 593.841 646.738 594.608 644.636 596.142C642.562 597.648 640.942 599.849 639.778 602.747C638.613 605.645 638.031 609.153 638.031 613.273C638.031 617.449 638.599 621 639.735 623.926C640.9 626.852 642.533 629.082 644.636 630.616C646.738 632.151 649.195 632.918 652.008 632.918C654.082 632.918 655.942 632.491 657.59 631.639C659.266 630.787 660.644 629.551 661.724 627.932C662.832 626.284 663.556 624.31 663.897 622.009H681.028C680.744 627.009 679.38 631.412 676.937 635.219C674.522 638.997 671.184 641.952 666.923 644.082C662.661 646.213 657.619 647.278 651.795 647.278ZM727.466 580.545V594.182H688.048V580.545H727.466ZM696.997 564.864H715.151V625.886C715.151 627.562 715.406 628.869 715.918 629.807C716.429 630.716 717.139 631.355 718.048 631.724C718.986 632.094 720.065 632.278 721.287 632.278C722.139 632.278 722.991 632.207 723.844 632.065C724.696 631.895 725.349 631.767 725.804 631.682L728.659 645.19C727.75 645.474 726.472 645.801 724.824 646.17C723.176 646.568 721.173 646.81 718.815 646.895C714.44 647.065 710.605 646.483 707.31 645.148C704.043 643.812 701.5 641.739 699.682 638.926C697.864 636.114 696.969 632.562 696.997 628.273V564.864Z" fill="#F1F1F1"/>
<defs>
<clipPath id="clip0_73_4">
<rect width="449" height="450" fill="white" transform="translate(162 28)"/>
</clipPath>
</defs>
</svg>
