<svg width="19" height="18" viewBox="0 0 19 18" fill="none" xmlns="http://www.w3.org/2000/svg">
<path d="M9.61069 0.428711H9.60632C4.78442 0.428711 0.863281 4.35094 0.863281 9.17393C0.863281 11.087 1.47982 12.86 2.52815 14.2997L1.43828 17.5486L4.79972 16.474C6.18256 17.3901 7.83213 17.9192 9.61069 17.9192C14.4326 17.9192 18.3537 13.9958 18.3537 9.17393C18.3537 4.35204 14.4326 0.428711 9.61069 0.428711ZM14.6993 12.7781C14.4883 13.3738 13.651 13.8679 12.9831 14.0122C12.5261 14.1095 11.9293 14.1871 9.92005 13.3542C7.35005 12.2894 5.69502 9.67788 5.56602 9.50844C5.4425 9.339 4.52753 8.1256 4.52753 6.87066C4.52753 5.61572 5.16484 5.00465 5.42173 4.74229C5.63271 4.52694 5.98142 4.42856 6.31593 4.42856C6.42415 4.42856 6.52144 4.43402 6.60889 4.4384C6.86578 4.44933 6.99478 4.46463 7.16421 4.87019C7.37519 5.37851 7.88897 6.63345 7.95019 6.76244C8.0125 6.89143 8.07481 7.06634 7.98736 7.23577C7.90537 7.41068 7.83322 7.48829 7.70423 7.63696C7.57524 7.78563 7.45281 7.89932 7.32381 8.05892C7.20575 8.19775 7.07239 8.34642 7.22106 8.60331C7.36973 8.85473 7.88351 9.69318 8.63997 10.3666C9.61616 11.2356 10.4076 11.5133 10.6907 11.6313C10.9017 11.7188 11.1531 11.698 11.3073 11.5341C11.5029 11.3231 11.7445 10.9733 11.9905 10.6289C12.1654 10.3819 12.3862 10.3513 12.618 10.4387C12.8541 10.5207 14.1035 11.1383 14.3604 11.2662C14.6173 11.3952 14.7868 11.4564 14.8491 11.5647C14.9103 11.6729 14.9103 12.1812 14.6993 12.7781Z" fill="#ffffff"/>
</svg>
